<!-- icon666.com - MILLIONS vector ICONS FREE --><svg fill="none" viewBox="0 0 120 120" xmlns="http://www.w3.org/2000/svg"><path d="m42.1588 20.8077c-9.7577 0-18.0654 6.2083-21.1885 14.8904-.1049.2917-.3339.5224-.6235.633-6.0497 2.3091-10.34683 8.1665-10.34683 15.0274 0 8.8805 7.19903 16.0795 16.07943 16.0795h3.922c-.6452-1.716-1.0014-3.5656-1.0014-5.4897 0-8.8651 7.1346-16.0517 15.9355-16.0517 1.6524 0 3.246.2533 4.7448.7235.5219.1638 1.087-.1326 1.2415-.6608 1.7173-5.8721 5.6356-10.7943 10.7931-13.7977-3.8781-6.7828-11.1833-11.3539-19.5561-11.3539z" fill="#a7baff" style="fill: rgb(140, 0, 255);"></path><path d="m50 73c0-13.2548 10.7452-24 24-24s24 10.7452 24 24-10.7452 24-24 24-24-10.7452-24-24z" fill="#a7baff" style="fill: rgb(140, 0, 255);"></path><g fill="#2140ae"><path d="m85.1574 70.4896c1.6512-1.4677 1.7999-3.9959.3322-5.6471-1.4677-1.6511-3.9959-1.7998-5.6471-.3322l-9 8c-1.6511 1.4677-1.7998 3.996-.3322 5.6471 1.4677 1.6512 3.996 1.7999 5.6471.3322z" fill="#2140ae" style="fill: rgb(255, 255, 255);"></path><path clip-rule="evenodd" d="m9.99997 51.3585c0 8.8182 7.41263 16.154 16.21913 16.0789 2.174 5.5069 8.3208 11.1011 14.5237 11.1011h6.487c1.733 13.2395 13.0579 23.4615 26.7702 23.4615 14.4325 0 26.22-11.3238 26.963-25.5714 5.876-3.0889 9.883-9.2523 9.883-16.3517 0-7.9031-4.966-14.6463-11.9476-17.2795-.29-.1094-.5191-.3405-.6232-.6325-3.5667-10.0041-13.1232-17.1649-24.3521-17.1649-5.2428 0-10.121 1.561-14.1951 4.2436-4.1257-5.1431-10.4629-8.4359-17.5692-8.4359-9.7577 0-18.0654 6.2083-21.1885 14.8904-.1049.2917-.3339.5224-.6235.633-6.0497 2.3091-10.34683 8.1665-10.34683 15.0274zm64.00003-3.3585c-13.3919 0-24.5066 9.7498-26.6331 22.5385h-5.4531c-4.9138-.5385-8.9138-4.2489-8.9138-9.5385 0-6.3487 6.4098-10.9698 12.3815-9.1098 4.7372 1.4755 9.9573-1.1361 11.4194-6.0995 2.1803-7.4014 9.0323-12.7907 17.1222-12.7907 7.7408 0 14.35 4.9328 16.8166 11.8514.904 2.5355 2.8752 4.5033 5.3356 5.4313 3.9687 1.4969 6.7707 5.3284 6.7707 9.7942 0 2.8275-1.122 5.393-2.9443 7.2758-3.2977-11.1873-13.6461-19.3527-25.9017-19.3527zm-31.8412-19.1923c-6.2775 0-11.6434 3.9903-13.6607 9.5983-.9063 2.5192-2.8639 4.4699-5.2985 5.3991-3.0528 1.1653-5.1996 4.1186-5.1996 7.5534 0 4.1218 3.0864 7.5227 7.0742 8.0175.8194-8.9249 8.3256-15.9145 17.4643-15.9145 1.8186 0 3.5726.2768 5.222.7906.5745.1789 1.1964-.1448 1.3664-.722.9673-3.2834 2.5689-6.2949 4.663-8.8928-2.6492-3.5416-6.8785-5.8296-11.6311-5.8296zm12.8412 46.1923c0-10.4934 8.5066-19 19-19s19 8.5066 19 19-8.5066 19-19 19-19-8.5066-19-19z" fill-rule="evenodd" fill="#2140ae" style="fill: rgb(255, 255, 255);"></path></g></svg>