<!-- icon666.com - MILLIONS vector ICONS FREE --><svg version="1.1" id="Capa_1" xmlns="http://www.w3.org/2000/svg" xmlns:xlink="http://www.w3.org/1999/xlink" x="0px" y="0px" viewBox="0 0 480.275 480.275" style="enable-background:new 0 0 480.275 480.275;" xml:space="preserve"><path style="fill: rgb(196, 95, 98);" d="M112.275,316.137c0-70.692,57.308-128,128-128s128,57.308,128,128" fill="#ED1C24"></path><path d="M472.275,308.137h-96.408c-4.229-74.89-68.367-132.172-143.257-127.943c-68.983,3.895-124.048,58.96-127.943,127.943H8.275 c-4.418,0-8,3.582-8,8s3.582,8,8,8h464c4.418,0,8-3.582,8-8S476.693,308.137,472.275,308.137z M240.275,196.137 c63.104,0.102,115.358,49.039,119.592,112h-239.2C124.901,245.17,177.165,196.231,240.275,196.137z" fill="#000000" style="fill: rgb(255, 255, 255);"></path><path d="M376.275,348.137c0-4.418-3.582-8-8-8h-264c-4.418,0-8,3.582-8,8s3.582,8,8,8h264 C372.693,356.137,376.275,352.556,376.275,348.137z" fill="#000000" style="fill: rgb(255, 255, 255);"></path><path d="M352.275,380.137c0-4.418-3.582-8-8-8h-216c-4.418,0-8,3.582-8,8s3.582,8,8,8h216 C348.693,388.137,352.275,384.556,352.275,380.137z" fill="#000000" style="fill: rgb(255, 255, 255);"></path><path d="M328.275,412.137c0-4.418-3.582-8-8-8h-168c-4.418,0-8,3.582-8,8s3.582,8,8,8h168 C324.693,420.137,328.275,416.556,328.275,412.137z" fill="#000000" style="fill: rgb(255, 255, 255);"></path><path d="M184.275,436.137c-4.418,0-8,3.582-8,8s3.582,8,8,8h104c4.418,0,8-3.582,8-8s-3.582-8-8-8H184.275z" fill="#000000" style="fill: rgb(255, 255, 255);"></path><path d="M8.275,300.137h80c4.418,0,8-3.582,8-8s-3.582-8-8-8h-80c-4.418,0-8,3.582-8,8S3.856,300.137,8.275,300.137z" fill="#000000" style="fill: rgb(255, 255, 255);"></path><path d="M5.539,211.649l88,32c4.094,1.662,8.76-0.31,10.421-4.404c1.662-4.094-0.31-8.76-4.404-10.421 c-0.179-0.073-0.361-0.139-0.545-0.199l-88-32c-4.094-1.662-8.76,0.31-10.421,4.404c-1.662,4.094,0.31,8.76,4.404,10.421 C5.173,211.524,5.355,211.59,5.539,211.649z" fill="#000000" style="fill: rgb(255, 255, 255);"></path><path d="M168.923,151.289c1.261,2.941,4.152,4.848,7.352,4.848c1.084,0.005,2.158-0.216,3.152-0.648 c4.06-1.741,5.94-6.444,4.2-10.504l-24-56c-1.799-4.036-6.528-5.849-10.564-4.05c-3.954,1.763-5.789,6.351-4.14,10.354 L168.923,151.289z" fill="#000000" style="fill: rgb(255, 255, 255);"></path><path d="M323.427,84.785c-4.06-1.74-8.763,0.14-10.504,4.2l-24,56c-1.74,4.06,0.14,8.763,4.2,10.504 c0.995,0.432,2.068,0.652,3.152,0.648c3.2,0,6.091-1.907,7.352-4.848l24-56C329.367,91.229,327.487,86.526,323.427,84.785 L323.427,84.785z" fill="#000000" style="fill: rgb(255, 255, 255);"></path><path d="M384.275,244.137c1.336,0.001,2.652-0.335,3.824-0.976l88-48c3.879-2.116,5.308-6.977,3.192-10.856 c-2.116-3.879-6.977-5.308-10.856-3.192l-88,48c-3.879,2.115-5.31,6.974-3.195,10.853 C378.643,242.541,381.343,244.141,384.275,244.137z" fill="#000000" style="fill: rgb(255, 255, 255);"></path><path d="M61.931,102.481c-3.178-3.069-8.243-2.982-11.312,0.196c-2.994,3.1-2.994,8.015,0,11.116l80,80 c3.178,3.069,8.243,2.981,11.312-0.197c2.994-3.1,2.994-8.015,0-11.115L61.931,102.481z" fill="#000000" style="fill: rgb(255, 255, 255);"></path><path d="M232.275,36.137v104c0,4.418,3.582,8,8,8s8-3.582,8-8v-104c0-4.418-3.582-8-8-8S232.275,31.719,232.275,36.137z" fill="#000000" style="fill: rgb(255, 255, 255);"></path><path d="M429.931,102.481c-3.124-3.123-8.188-3.123-11.312,0l-80,80c-3.178,3.07-3.266,8.134-0.196,11.312 c3.07,3.178,8.134,3.266,11.312,0.196c0.067-0.064,0.132-0.13,0.196-0.196l80-80C433.054,110.669,433.054,105.605,429.931,102.481z" fill="#000000" style="fill: rgb(255, 255, 255);"></path><path d="M472.275,284.137h-80c-4.418,0-8,3.582-8,8s3.582,8,8,8h80c4.418,0,8-3.582,8-8S476.693,284.137,472.275,284.137z" fill="#000000" style="fill: rgb(255, 255, 255);"></path></svg>